<svg xmlns="http://www.w3.org/2000/svg" width="22" height="22" fill="none"><path fill="#13156B" d="M10.936 0c-1.505 0-2.922.288-4.25.863A11.206 11.206 0 0 0 3.21 3.2 10.976 10.976 0 0 0 .863 6.663 10.574 10.574 0 0 0 0 10.914c0 1.505.288 2.922.863 4.25A10.977 10.977 0 0 0 3.21 18.63c.989.982 2.147 1.76 3.476 2.336 1.328.575 2.745.863 4.25.863 1.506 0 2.915-.288 4.229-.863a11.207 11.207 0 0 0 3.475-2.336 10.976 10.976 0 0 0 2.347-3.465c.576-1.328.863-2.745.863-4.25s-.287-2.922-.863-4.25a10.975 10.975 0 0 0-2.347-3.465A11.206 11.206 0 0 0 15.165.863C13.85.288 12.442 0 10.936 0Zm0 20.146c-1.284 0-2.48-.244-3.586-.73a9.533 9.533 0 0 1-2.944-1.982 9.004 9.004 0 0 1-1.97-2.934 8.907 8.907 0 0 1-.731-3.586c0-1.27.243-2.465.73-3.586a9.004 9.004 0 0 1 1.97-2.934A9.532 9.532 0 0 1 7.35 2.413c1.107-.487 2.302-.73 3.586-.73 1.27 0 2.465.243 3.587.73a9.608 9.608 0 0 1 2.922 1.981 9.005 9.005 0 0 1 1.97 2.934 8.907 8.907 0 0 1 .73 3.586c0 1.27-.243 2.465-.73 3.586a9.005 9.005 0 0 1-1.97 2.934 9.609 9.609 0 0 1-2.922 1.981 8.907 8.907 0 0 1-3.587.73Zm4.207-10.162h-3.388V6.62a.85.85 0 0 0-.243-.609.795.795 0 0 0-.598-.254.795.795 0 0 0-.598.254.85.85 0 0 0-.243.61v3.364H6.686a.795.795 0 0 0-.598.255.85.85 0 0 0-.244.609c0 .221.082.416.244.586.162.17.362.255.598.255h3.387v3.387c0 .221.081.417.243.587.163.17.362.254.598.254a.795.795 0 0 0 .598-.254.824.824 0 0 0 .243-.587v-3.387h3.387a.795.795 0 0 0 .598-.255.824.824 0 0 0 .244-.586.85.85 0 0 0-.244-.61.795.795 0 0 0-.598-.254Z"/></svg>